<svg width="25" height="25" viewBox="0 0 25 25" fill="none" xmlns="http://www.w3.org/2000/svg">
<path d="M8.50098 14.0298C11.8147 14.0298 14.501 11.3435 14.501 8.02979C14.501 4.71608 11.8147 2.02979 8.50098 2.02979C5.18727 2.02979 2.50098 4.71608 2.50098 8.02979C2.50098 11.3435 5.18727 14.0298 8.50098 14.0298Z" stroke="white" stroke-width="2" stroke-linecap="round" stroke-linejoin="round"/>
<path d="M18.5898 10.3999C19.5352 10.7523 20.3763 11.3374 21.0356 12.1011C21.6949 12.8648 22.1509 13.7823 22.3616 14.769C22.5723 15.7556 22.5307 16.7794 22.2409 17.7458C21.951 18.7121 21.4222 19.5897 20.7033 20.2975C19.9844 21.0053 19.0986 21.5204 18.1278 21.7951C17.1571 22.0699 16.1327 22.0954 15.1495 21.8694C14.1663 21.6433 13.256 21.173 12.5027 20.5019C11.7494 19.8308 11.1775 18.9806 10.8398 18.0299" stroke="white" stroke-width="2" stroke-linecap="round" stroke-linejoin="round"/>
<path d="M7.56215 5.56429C7.88431 4.69367 9.11569 4.69367 9.43785 5.56429L9.69088 6.24809C9.79217 6.52181 10.008 6.73762 10.2817 6.83891L10.9655 7.09193C11.8361 7.41409 11.8361 8.64548 10.9655 8.96764L10.2817 9.22067C10.008 9.32195 9.79217 9.53776 9.69088 9.81148L9.43785 10.4953C9.11569 11.3659 7.88431 11.3659 7.56215 10.4953L7.30912 9.81148C7.20783 9.53776 6.99202 9.32195 6.7183 9.22067L6.03451 8.96764C5.16389 8.64548 5.16389 7.41409 6.03451 7.09193L6.7183 6.83891C6.99202 6.73762 7.20783 6.52181 7.30912 6.24809L7.56215 5.56429Z" fill="white"/>
</svg>
