<svg width="25" height="24" viewBox="0 0 25 24" fill="none" xmlns="http://www.w3.org/2000/svg">
<path d="M12.667 2C7.15699 2 2.66699 6.49 2.66699 12C2.66699 17.51 7.15699 22 12.667 22C18.177 22 22.667 17.51 22.667 12C22.667 6.49 18.177 2 12.667 2ZM17.447 9.7L11.777 15.37C11.637 15.51 11.447 15.59 11.247 15.59C11.047 15.59 10.857 15.51 10.717 15.37L7.88699 12.54C7.59699 12.25 7.59699 11.77 7.88699 11.48C8.17699 11.19 8.65699 11.19 8.94699 11.48L11.247 13.78L16.387 8.64C16.677 8.35 17.157 8.35 17.447 8.64C17.737 8.93 17.737 9.4 17.447 9.7Z" fill="#A1F86E"/>
</svg>
